<svg width="140" height="32" viewBox="0 0 140 32" fill="none" xmlns="http://www.w3.org/2000/svg">
<path d="M9.41733 10.8227C9.41733 10.0453 10.0467 9.416 10.824 9.416H21.1707C21.9467 9.416 22.5773 8.78667 22.5773 8.00933V5.40667C22.5773 4.62933 21.9467 4 21.1707 4H10.224C9.44667 4 8.81733 4.62933 8.81733 5.40667V7.41333C8.81733 8.19067 8.18667 8.82 7.41067 8.82H5.408C5.22316 8.81982 5.0401 8.85608 4.86928 8.92669C4.69846 8.99731 4.54324 9.10089 4.41247 9.23153C4.28171 9.36217 4.17798 9.5173 4.1072 9.68805C4.03643 9.8588 4 10.0418 4 10.2267V14.6173C4 15.3947 4.63333 15.992 5.41067 15.992H8.012C8.78933 15.992 9.42 15.3627 9.42 14.5853L9.41733 10.8227ZM26.5933 15.9933H23.9907C23.2133 15.9933 22.584 16.6227 22.584 17.4V21.1773C22.584 21.9547 21.9547 22.584 21.1773 22.584H10.824C10.0467 22.584 9.41733 23.2133 9.41733 23.9907V26.5933C9.41733 27.3707 10.0467 28 10.824 28H21.776C21.9603 27.9998 22.1428 27.9633 22.3129 27.8924C22.483 27.8216 22.6375 27.7178 22.7675 27.5871C22.8974 27.4564 23.0003 27.3014 23.0701 27.1308C23.14 26.9603 23.1755 26.7776 23.1747 26.5933V24.5053C23.1747 23.728 23.804 23.1773 24.5813 23.1773H26.5933C27.3693 23.1773 28 22.5467 28 21.7693V17.3827C28 16.6067 27.3693 15.9933 26.5933 15.9933ZM17.2747 13.2573H14.776C13.9627 13.2573 13.3 13.9187 13.3 14.7333V17.232C13.3 18.0453 13.9613 18.708 14.776 18.708H17.2747C18.088 18.708 18.7507 18.0467 18.7507 17.232V14.7333C18.7507 13.92 18.0893 13.2573 17.2747 13.2573Z" fill="#045C23"/>
<g style="mix-blend-mode:hard-light">
<path d="M36.3359 9.35156L38.2188 22H34.8516L34.6875 19.7266H33.5078L33.3125 22H29.9062L31.5781 9.35156H36.3359ZM34.5938 17.4844C34.4271 16.0521 34.2604 14.2839 34.0938 12.1797C33.7604 14.5964 33.5521 16.3646 33.4688 17.4844H34.5938ZM38.7812 9.35156H44.3516V11.8828H42.0703V14.2812H44.1016V16.6875H42.0703V22H38.7812V9.35156ZM45.1562 9.35156H50.6406V11.8828H48.4453V14.2812H50.5V16.6875H48.4453V19.4688H50.8594V22H45.1562V9.35156Z" fill="white"/>
<path d="M54.6406 9.35156H57.9531C58.849 9.35156 59.5365 9.42188 60.0156 9.5625C60.5 9.70312 60.862 9.90625 61.1016 10.1719C61.3464 10.4375 61.5104 10.7604 61.5938 11.1406C61.6823 11.5156 61.7266 12.099 61.7266 12.8906V13.9922C61.7266 14.7995 61.6432 15.388 61.4766 15.7578C61.3099 16.1276 61.0026 16.4115 60.5547 16.6094C60.112 16.8073 59.5312 16.9062 58.8125 16.9062H57.9297V22H54.6406V9.35156ZM57.9297 11.5156V14.7344C58.0234 14.7396 58.1042 14.7422 58.1719 14.7422C58.474 14.7422 58.6823 14.6693 58.7969 14.5234C58.9167 14.3724 58.9766 14.0625 58.9766 13.5938V12.5547C58.9766 12.1224 58.9089 11.8411 58.7734 11.7109C58.638 11.5807 58.3568 11.5156 57.9297 11.5156ZM62.6719 9.35156H65C66.5521 9.35156 67.6016 9.41146 68.1484 9.53125C68.7005 9.65104 69.1484 9.95833 69.4922 10.4531C69.8411 10.9427 70.0156 11.7266 70.0156 12.8047C70.0156 13.7891 69.8932 14.4505 69.6484 14.7891C69.4036 15.1276 68.9219 15.3307 68.2031 15.3984C68.8542 15.5599 69.2917 15.776 69.5156 16.0469C69.7396 16.3177 69.8776 16.5677 69.9297 16.7969C69.987 17.0208 70.0156 17.6432 70.0156 18.6641V22H66.9609V17.7969C66.9609 17.1198 66.9062 16.7005 66.7969 16.5391C66.6927 16.3776 66.4141 16.2969 65.9609 16.2969V22H62.6719V9.35156ZM65.9609 11.5156V14.3281C66.3307 14.3281 66.5885 14.2786 66.7344 14.1797C66.8854 14.0755 66.9609 13.7448 66.9609 13.1875V12.4922C66.9609 12.0911 66.888 11.8281 66.7422 11.7031C66.6016 11.5781 66.3411 11.5156 65.9609 11.5156ZM71.2969 9.35156H76.7812V11.8828H74.5859V14.2812H76.6406V16.6875H74.5859V19.4688H77V22H71.2969V9.35156ZM77.9531 9.35156H80.4141C82.0026 9.35156 83.0755 9.42448 83.6328 9.57031C84.1953 9.71615 84.6224 9.95573 84.9141 10.2891C85.2057 10.6224 85.388 10.9948 85.4609 11.4062C85.5339 11.8125 85.5703 12.6146 85.5703 13.8125V18.2422C85.5703 19.3776 85.5156 20.138 85.4062 20.5234C85.3021 20.9036 85.1172 21.2031 84.8516 21.4219C84.5859 21.6354 84.2578 21.7865 83.8672 21.875C83.4766 21.9583 82.888 22 82.1016 22H77.9531V9.35156ZM81.2422 11.5156V19.8359C81.7161 19.8359 82.0078 19.7422 82.1172 19.5547C82.2266 19.362 82.2812 18.8438 82.2812 18V13.0859C82.2812 12.513 82.263 12.1458 82.2266 11.9844C82.1901 11.8229 82.1068 11.7057 81.9766 11.6328C81.8464 11.5547 81.6016 11.5156 81.2422 11.5156ZM90.0859 9.35156V22H86.7969V9.35156H90.0859ZM99.0859 14.8672H95.7969V12.6641C95.7969 12.0234 95.7604 11.625 95.6875 11.4688C95.6198 11.3073 95.4661 11.2266 95.2266 11.2266C94.9557 11.2266 94.7839 11.3229 94.7109 11.5156C94.638 11.7083 94.6016 12.125 94.6016 12.7656V18.6406C94.6016 19.2552 94.638 19.6562 94.7109 19.8438C94.7839 20.0312 94.9479 20.125 95.2031 20.125C95.4479 20.125 95.6068 20.0312 95.6797 19.8438C95.7578 19.6562 95.7969 19.2161 95.7969 18.5234V16.9375H99.0859V17.4297C99.0859 18.737 98.9922 19.6641 98.8047 20.2109C98.6224 20.7578 98.2135 21.237 97.5781 21.6484C96.9479 22.0599 96.1693 22.2656 95.2422 22.2656C94.2786 22.2656 93.4844 22.0911 92.8594 21.7422C92.2344 21.3932 91.8203 20.9115 91.6172 20.2969C91.4141 19.6771 91.3125 18.7474 91.3125 17.5078V13.8125C91.3125 12.901 91.3438 12.2188 91.4062 11.7656C91.4688 11.3073 91.6536 10.8672 91.9609 10.4453C92.2734 10.0234 92.7031 9.69271 93.25 9.45312C93.8021 9.20833 94.4349 9.08594 95.1484 9.08594C96.1172 9.08594 96.9167 9.27344 97.5469 9.64844C98.1771 10.0234 98.5911 10.4922 98.7891 11.0547C98.987 11.612 99.0859 12.4818 99.0859 13.6641V14.8672ZM106.891 9.35156V11.8828H104.938V22H101.648V11.8828H99.7031V9.35156H106.891ZM110.93 9.35156V22H107.641V9.35156H110.93Z" fill="#F49E53"/>
</g>
<path d="M126 16.0002C126 16.3611 125.971 16.7152 125.913 17.0604C125.754 18.0444 125.371 18.9544 124.817 19.7367V19.7389C123.867 21.0905 122.412 22.0633 120.729 22.3838C120.214 22.4821 119.689 22.5182 119.166 22.4914H119.151C119.045 22.4847 118.94 22.478 118.834 22.4668C118.826 22.4668 118.817 22.4645 118.808 22.4645C118.72 22.4556 118.633 22.4444 118.545 22.4309C118.521 22.4264 118.494 22.4242 118.469 22.4197C118.402 22.4085 118.337 22.3973 118.27 22.3838C118.164 22.3637 118.059 22.3413 117.954 22.3144C117.911 22.3054 117.866 22.2942 117.824 22.283C117.765 22.2673 117.707 22.2494 117.649 22.2314C117.597 22.2157 117.543 22.2 117.49 22.1821C117.437 22.1666 117.384 22.1487 117.333 22.1283L117.205 22.0813C117.18 22.0745 117.158 22.0656 117.133 22.0544C116.927 21.9722 116.725 21.8802 116.528 21.7787C116.476 21.7518 116.427 21.7249 116.376 21.6957C116.317 21.6643 116.261 21.633 116.205 21.5993C116.143 21.5612 116.08 21.5254 116.017 21.485C115.999 21.4738 115.981 21.4604 115.963 21.4492C115.876 21.3931 115.788 21.3326 115.705 21.2721C115.634 21.2228 115.564 21.169 115.497 21.1174C115.49 21.1129 115.484 21.1076 115.479 21.1017C115.419 21.0547 115.36 21.0076 115.304 20.9583C115.275 20.9359 115.246 20.9112 115.219 20.8866L115.154 20.8283C115.15 20.826 115.147 20.8238 115.145 20.8216C115.138 20.8148 115.132 20.8081 115.125 20.8036C115.12 20.8014 115.118 20.7969 115.116 20.7947C115.112 20.7929 115.109 20.7897 115.107 20.7857C115.078 20.7615 115.051 20.736 115.024 20.7095C114.995 20.6826 114.968 20.6579 114.943 20.631C114.939 20.6266 114.934 20.6221 114.932 20.6176C114.91 20.5952 114.887 20.575 114.865 20.5548C114.831 20.5208 114.799 20.4826 114.766 20.4472L114.762 20.4428L114.762 20.443C114.687 20.3636 114.612 20.285 114.54 20.2007C114.486 20.1379 114.432 20.0729 114.381 20.0057C113.702 19.1413 113.255 18.1185 113.081 17.0335C113.027 16.6973 113 16.3521 113 16.0002C113 14.6172 113.43 13.3351 114.17 12.2816C114.885 11.2551 115.891 10.4459 117.068 9.97295C117.819 9.66587 118.639 9.5 119.5 9.5C120.359 9.5 121.179 9.66587 121.928 9.9707C122.493 10.1948 123.017 10.4997 123.49 10.8718C123.615 10.9681 123.739 11.0713 123.858 11.1811H123.86C123.979 11.2887 124.093 11.4007 124.203 11.5173C124.371 11.6899 124.526 11.8715 124.671 12.0642C124.718 12.127 124.768 12.192 124.812 12.257V12.2592C124.812 12.2592 124.812 12.257 124.815 12.2592C124.927 12.4139 125.032 12.5775 125.126 12.7456C125.16 12.8017 125.191 12.8577 125.223 12.916C125.261 12.9855 125.297 13.0527 125.328 13.1222C125.353 13.1693 125.375 13.2163 125.397 13.2656C125.433 13.3374 125.465 13.4091 125.494 13.4808C125.53 13.5615 125.561 13.6422 125.59 13.7251C125.615 13.7879 125.637 13.8507 125.657 13.9157C125.675 13.9672 125.693 14.021 125.711 14.077C125.734 14.1488 125.754 14.2205 125.774 14.2922C125.787 14.3438 125.801 14.3931 125.812 14.4446C125.852 14.6038 125.886 14.7629 125.911 14.9265C125.92 14.9736 125.926 15.0207 125.933 15.07C125.944 15.1417 125.953 15.2157 125.96 15.2874C125.965 15.3188 125.969 15.3502 125.971 15.3793C125.978 15.4578 125.985 15.5362 125.987 15.6169C125.991 15.6505 125.994 15.6819 125.994 15.7155C125.998 15.8097 126 15.9038 126 16.0002Z" fill="white"/>
<path d="M126 16.0002C126 16.3611 125.971 16.7152 125.913 17.0604C125.754 18.0444 125.371 18.9544 124.817 19.7367V19.7389C123.867 21.0905 122.412 22.0633 120.729 22.3839C120.214 22.4821 119.689 22.5182 119.166 22.4914H119.151C119.045 22.4847 118.94 22.478 118.835 22.4668C118.826 22.4668 118.817 22.4645 118.808 22.4645C118.72 22.4556 118.633 22.4444 118.545 22.4309C118.521 22.4264 118.494 22.4242 118.469 22.4197C118.402 22.4085 118.337 22.3973 118.27 22.3839C118.164 22.3637 118.059 22.3413 117.954 22.3144C117.911 22.3054 117.866 22.2942 117.824 22.283C117.765 22.2673 117.707 22.2494 117.649 22.2314C117.597 22.2157 117.543 22.2001 117.49 22.1821C117.437 22.1666 117.384 22.1487 117.333 22.1283L117.205 22.0813C117.18 22.0745 117.158 22.0656 117.133 22.0544C117.046 22.0185 116.958 21.9826 116.873 21.9445C116.815 21.9176 116.757 21.8907 116.701 21.8638C116.642 21.8369 116.586 21.8078 116.528 21.7787C116.477 21.7518 116.427 21.7249 116.376 21.6957C116.317 21.6643 116.261 21.633 116.205 21.5993C116.143 21.5612 116.08 21.5254 116.017 21.485C115.999 21.4738 115.981 21.4604 115.963 21.4492C115.876 21.3931 115.788 21.3326 115.705 21.2721C115.634 21.2228 115.564 21.169 115.497 21.1174C115.491 21.1129 115.485 21.1076 115.479 21.1017C115.419 21.0547 115.36 21.0076 115.304 20.9583C115.241 20.9045 115.178 20.8499 115.116 20.7947C115.112 20.7929 115.109 20.7897 115.107 20.7857C115.049 20.7297 114.988 20.6759 114.932 20.6176C114.874 20.5593 114.818 20.501 114.762 20.4428C115.656 20.9673 116.689 21.2878 117.792 21.3281C117.877 21.3326 117.963 21.3349 118.048 21.3349C119.563 21.3349 120.959 20.8171 122.064 19.9452C123.407 18.8894 124.324 17.3159 124.512 15.525C124.537 15.2986 124.548 15.0678 124.548 14.8347C124.548 14.3707 124.499 13.9201 124.407 13.4853V13.4831C124.162 12.3306 123.608 11.2666 122.804 10.4055C123.042 10.5468 123.273 10.7037 123.49 10.8718C123.616 10.9704 123.739 11.0735 123.858 11.1811C123.858 11.1811 123.858 11.1788 123.86 11.1811C123.979 11.2909 124.093 11.4008 124.203 11.5173C124.422 11.7482 124.629 11.997 124.812 12.2592C124.925 12.4161 125.03 12.5775 125.126 12.7456C125.16 12.8017 125.191 12.8577 125.223 12.916C125.261 12.9855 125.297 13.0527 125.328 13.1222C125.353 13.1693 125.375 13.2163 125.398 13.2656C125.433 13.3374 125.465 13.4091 125.494 13.4808C125.53 13.5615 125.561 13.6422 125.59 13.7251C125.615 13.7879 125.637 13.8507 125.658 13.9157C125.675 13.9672 125.693 14.021 125.711 14.077C125.734 14.1488 125.754 14.2205 125.774 14.2922C125.788 14.3438 125.801 14.3931 125.812 14.4446C125.853 14.6038 125.886 14.7629 125.911 14.9265C125.92 14.9736 125.926 15.0207 125.933 15.07C125.944 15.1417 125.953 15.2157 125.96 15.2874C125.965 15.3188 125.969 15.3502 125.971 15.3793C125.978 15.4578 125.985 15.5362 125.987 15.6169C125.991 15.6505 125.994 15.6819 125.994 15.7155C125.998 15.8097 126 15.9038 126 16.0002Z" fill="#D0CFCE"/>
<path d="M126 16.0002C126 16.3611 125.971 16.7152 125.913 17.0604C125.754 18.0444 125.371 18.9544 124.817 19.7367V19.7389C123.867 21.0905 122.412 22.0633 120.729 22.3838C120.214 22.4821 119.689 22.5182 119.166 22.4914H119.151C119.045 22.4847 118.94 22.478 118.834 22.4668C118.826 22.4668 118.817 22.4645 118.808 22.4645C118.72 22.4556 118.633 22.4444 118.545 22.4309C118.521 22.4264 118.494 22.4242 118.469 22.4197C118.402 22.4085 118.337 22.3973 118.27 22.3838C118.164 22.3637 118.059 22.3413 117.954 22.3144C117.911 22.3054 117.866 22.2942 117.824 22.283C117.765 22.2673 117.707 22.2494 117.649 22.2314C117.597 22.2157 117.543 22.2 117.49 22.1821C117.437 22.1666 117.384 22.1487 117.333 22.1283L117.205 22.0813C117.18 22.0745 117.158 22.0656 117.133 22.0544C116.927 21.9722 116.725 21.8802 116.528 21.7787C116.476 21.7518 116.427 21.7249 116.376 21.6957C116.317 21.6643 116.261 21.633 116.205 21.5993C116.143 21.5612 116.08 21.5254 116.017 21.485C115.999 21.4738 115.981 21.4604 115.963 21.4492C115.876 21.3931 115.788 21.3326 115.705 21.2721C115.634 21.2228 115.564 21.169 115.497 21.1174C115.49 21.1129 115.484 21.1076 115.479 21.1017C115.419 21.0547 115.36 21.0076 115.304 20.9583C115.275 20.9359 115.246 20.9112 115.219 20.8866L115.154 20.8283C115.15 20.826 115.147 20.8238 115.145 20.8216C115.138 20.8148 115.132 20.8081 115.125 20.8036C115.12 20.8014 115.118 20.7969 115.116 20.7947C115.112 20.7929 115.109 20.7897 115.107 20.7857C115.078 20.7615 115.051 20.736 115.024 20.7095C114.995 20.6826 114.968 20.6579 114.943 20.631C114.939 20.6266 114.934 20.6221 114.932 20.6176C114.91 20.5952 114.887 20.575 114.865 20.5548C114.831 20.5208 114.799 20.4826 114.766 20.4472L114.762 20.4428L114.762 20.443C114.687 20.3636 114.612 20.285 114.54 20.2007C114.486 20.1379 114.432 20.0729 114.381 20.0057C113.702 19.1413 113.255 18.1185 113.081 17.0335C113.027 16.6973 113 16.3521 113 16.0002C113 14.6172 113.43 13.3351 114.17 12.2816C114.885 11.2551 115.891 10.4459 117.068 9.97295C117.819 9.66587 118.639 9.5 119.5 9.5C120.359 9.5 121.179 9.66587 121.928 9.9707C122.493 10.1948 123.017 10.4997 123.49 10.8718C123.615 10.9681 123.739 11.0713 123.858 11.1811H123.86C123.979 11.2887 124.093 11.4007 124.203 11.5173C124.371 11.6899 124.526 11.8715 124.671 12.0642C124.718 12.127 124.768 12.192 124.812 12.257V12.2592C124.812 12.2592 124.812 12.257 124.815 12.2592C124.927 12.4139 125.032 12.5775 125.126 12.7456C125.16 12.8017 125.191 12.8577 125.223 12.916C125.261 12.9855 125.297 13.0527 125.328 13.1222C125.353 13.1693 125.375 13.2163 125.397 13.2656C125.433 13.3374 125.465 13.4091 125.494 13.4808C125.53 13.5615 125.561 13.6422 125.59 13.7251C125.615 13.7879 125.637 13.8507 125.657 13.9157C125.675 13.9672 125.693 14.021 125.711 14.077C125.734 14.1488 125.754 14.2205 125.774 14.2922C125.787 14.3438 125.801 14.3931 125.812 14.4446C125.852 14.6038 125.886 14.7629 125.911 14.9265C125.92 14.9736 125.926 15.0207 125.933 15.07C125.944 15.1417 125.953 15.2157 125.96 15.2874C125.965 15.3188 125.969 15.3502 125.971 15.3793C125.978 15.4578 125.985 15.5362 125.987 15.6169C125.991 15.6505 125.994 15.6819 125.994 15.7155C125.998 15.8097 126 15.9038 126 16.0002Z" stroke="black" stroke-width="0.44829" stroke-miterlimit="10" stroke-linecap="round" stroke-linejoin="round"/>
<path d="M119.105 14.2234L117.725 15.2258C117.61 15.3092 117.525 15.4269 117.481 15.562C117.437 15.697 117.437 15.8425 117.481 15.9776L118.008 17.5995C118.052 17.7345 118.137 17.8522 118.252 17.9357C118.367 18.0192 118.506 18.0641 118.648 18.0641H120.353C120.495 18.0642 120.633 18.0192 120.748 17.9358C120.863 17.8523 120.949 17.7346 120.993 17.5995L121.519 15.9776C121.563 15.8425 121.563 15.697 121.519 15.562C121.475 15.4269 121.39 15.3092 121.275 15.2258L119.895 14.2234C119.78 14.14 119.642 14.095 119.5 14.095C119.358 14.095 119.22 14.14 119.105 14.2234ZM121.804 10.2128L119.919 11.1363C119.787 11.199 119.644 11.2304 119.5 11.2282C119.372 11.2259 119.245 11.1968 119.124 11.1407L117.194 10.2217C117.1 10.1769 117.05 10.0716 117.068 9.97295C117.819 9.66587 118.639 9.5 119.5 9.5C120.359 9.5 121.179 9.66587 121.928 9.9707C121.946 10.0671 121.899 10.168 121.804 10.2128ZM118.27 22.3838C118.164 22.3637 118.059 22.3413 117.954 22.3144C117.911 22.3054 117.866 22.2942 117.824 22.283C117.765 22.2673 117.707 22.2494 117.649 22.2314C117.597 22.2157 117.543 22.2 117.49 22.1821C117.437 22.1666 117.384 22.1487 117.333 22.1283L117.205 22.0813C117.18 22.0745 117.158 22.0656 117.133 22.0544C117.046 22.0185 116.958 21.9826 116.873 21.9445C116.756 21.893 116.642 21.8369 116.528 21.7784C116.477 21.7518 116.426 21.7245 116.376 21.6964C116.318 21.665 116.261 21.6327 116.205 21.5993C116.142 21.5624 116.079 21.5245 116.017 21.4855L115.963 21.4494C115.261 20.9953 114.653 20.4099 114.172 19.7255C114.215 19.6493 114.302 19.6022 114.399 19.6134L116.492 19.8689C116.636 19.8869 116.77 19.9362 116.887 20.0146C116.997 20.0886 117.091 20.185 117.16 20.2993L117.792 21.3281L118.283 22.1306C118.332 22.2113 118.326 22.3121 118.27 22.3838ZM114.829 14.9624C114.797 15.094 114.736 15.2171 114.652 15.3233L113.329 16.9595C113.267 17.0357 113.166 17.0626 113.081 17.0335C113.027 16.6973 113 16.3521 113 16.0002C113 14.6172 113.43 13.3351 114.17 12.2816C114.264 12.2928 114.347 12.3601 114.367 12.4587L114.834 14.55C114.865 14.6867 114.863 14.8279 114.829 14.9624ZM124.817 19.7367V19.7389C123.867 21.0905 122.412 22.0633 120.729 22.3838C120.67 22.3121 120.664 22.209 120.713 22.1261L121.831 20.3015C121.903 20.1844 122.001 20.0849 122.116 20.0104C122.232 19.936 122.363 19.8884 122.499 19.8712L124.586 19.6157C124.685 19.6045 124.774 19.656 124.817 19.7367ZM126 16.0002C126 16.3611 125.971 16.7152 125.913 17.0604C125.872 17.0696 125.829 17.0672 125.79 17.0533C125.75 17.0394 125.715 17.0147 125.689 16.982L124.512 15.525L124.348 15.3233C124.262 15.2165 124.201 15.0913 124.17 14.9573C124.138 14.8233 124.138 14.684 124.169 14.55L124.407 13.4853V13.4831L124.64 12.4318C124.658 12.3444 124.727 12.2772 124.812 12.2592C124.812 12.257 124.812 12.257 124.815 12.2592C124.927 12.4139 125.032 12.5775 125.126 12.7456C125.16 12.8017 125.191 12.8577 125.223 12.916C125.261 12.9855 125.297 13.0527 125.328 13.1222C125.353 13.1693 125.375 13.2163 125.397 13.2656C125.433 13.3374 125.465 13.4091 125.494 13.4808C125.53 13.5615 125.561 13.6422 125.59 13.7251C125.615 13.7879 125.637 13.8507 125.657 13.9157C125.675 13.9672 125.693 14.021 125.711 14.077C125.734 14.1488 125.754 14.2205 125.774 14.2922C125.787 14.3438 125.801 14.3931 125.812 14.4446C125.852 14.6038 125.886 14.7629 125.911 14.9265C125.92 14.9736 125.926 15.0207 125.933 15.07C125.944 15.1417 125.953 15.2157 125.96 15.2874C125.965 15.3188 125.969 15.3502 125.971 15.3793C125.978 15.4578 125.985 15.5362 125.987 15.6169C125.991 15.6505 125.994 15.6819 125.994 15.7155C125.998 15.8097 126 15.9038 126 16.0002Z" fill="black"/>
<path d="M119.5 11.2286V14.095M121.515 15.5497L124.165 14.9528M120.753 17.9317L122.109 20.0153M118.244 17.9292L116.887 20.0153M117.483 15.5562L114.83 14.9631" stroke="black" stroke-width="0.44829" stroke-miterlimit="10" stroke-linecap="round" stroke-linejoin="round"/>
<path d="M135 9.35156V22H132.118L130.407 16.25V22H127.657V9.35156H130.407L132.25 15.0469V9.35156H135Z" fill="#D5571D"/>
</svg>
